<?xml version="1.0" encoding="UTF-8" standalone="no" ?>
<!DOCTYPE svg PUBLIC "-//W3C//DTD SVG 1.1//EN" "http://www.w3.org/Graphics/SVG/1.1/DTD/svg11.dtd">
<svg xmlns="http://www.w3.org/2000/svg" xmlns:xlink="http://www.w3.org/1999/xlink" version="1.1" width="500" height="500" viewBox="0 0 500 500" xml:space="preserve">
<desc>Created with Fabric.js 5.2.4</desc>
<defs>
</defs>
<g transform="matrix(1 0 0 1 250 250)" id="97a29a2d-2550-4800-a9d5-84e8a27a978a"  >
<rect style="stroke: none; stroke-width: 1; stroke-dasharray: none; stroke-linecap: butt; stroke-dashoffset: 0; stroke-linejoin: miter; stroke-miterlimit: 4; fill: rgb(255,255,255); fill-rule: nonzero; opacity: 1; visibility: hidden;" vector-effect="non-scaling-stroke"  x="-250" y="-250" rx="0" ry="0" width="500" height="500" />
</g>
<g transform="matrix(Infinity NaN NaN Infinity 0 0)" id="58172bee-8252-49a4-9026-b83602322d7e"  >
</g>
<g transform="matrix(NaN NaN NaN NaN 0 0)"  >
<g style=""   >
</g>
</g>
<g transform="matrix(0.95 0 0 0.95 250 250)"  >
<g style="" vector-effect="non-scaling-stroke"   >
		<g transform="matrix(1 0 0 1 0 -15.69)"  >
<path style="stroke: none; stroke-width: 1; stroke-dasharray: none; stroke-linecap: butt; stroke-dashoffset: 0; stroke-linejoin: miter; stroke-miterlimit: 4; fill: rgb(0,0,0); fill-rule: evenodd; opacity: 1;" vector-effect="non-scaling-stroke"  transform=" translate(-250, -234.31)" d="M 75.209 13.59935 C 69.2402 13.59935 64.369 18.466549999999998 64.369 24.439349999999997 L 64.37291 444.18935 C 64.37291 450.16985 69.24011 455.02934999999997 75.20891 455.02934999999997 L 424.77891 455.02934999999997 C 430.76331 455.02934999999997 435.62691 450.17384999999996 435.62691 444.19334999999995 L 435.62691 24.443349999999953 C 435.62691 18.47454999999995 430.75581 13.603349999999953 424.77491000000003 13.603349999999953 L 75.20491000000004 13.603349999999953 L 75.20900000000005 13.599349999999953 z M 424.779 465.81935000000004 L 75.209 465.81935000000004 C 63.279 465.81935000000004 53.57600000000001 456.11625000000004 53.57600000000001 444.18635000000006 L 53.57600000000001 24.43635000000006 C 53.57600000000001 12.506350000000062 63.27910000000001 2.803350000000062 75.209 2.803350000000062 L 424.779 2.803350000000062 C 436.709 2.803350000000062 446.424 12.506450000000061 446.424 24.43635000000006 L 446.424 444.18635000000006 C 446.424 456.11635000000007 436.70919999999995 465.81935000000004 424.779 465.81935000000004 z" stroke-linecap="round" />
</g>
		<g transform="matrix(1 0 0 1 -113.01 226.12)"  >
<path style="stroke: none; stroke-width: 1; stroke-dasharray: none; stroke-linecap: butt; stroke-dashoffset: 0; stroke-linejoin: miter; stroke-miterlimit: 4; fill: rgb(0,0,0); fill-rule: evenodd; opacity: 1;" vector-effect="non-scaling-stroke"  transform=" translate(-136.99, -476.12)" d="M 154.029 497.18435 L 109.166 497.18435 C 106.18939999999999 497.18435 103.7676 494.76635 103.7676 491.78985 L 103.7676 460.43085 C 103.7676 457.45035 106.18560000000001 455.03635 109.1621 455.03635 C 112.1426 455.03635 114.56049999999999 457.45435000000003 114.56049999999999 460.43475 L 114.56441 486.39575 L 150.18541 486.39575 L 159.72841 458.68075000000005 C 160.69325 455.86045000000007 163.76361 454.37605 166.58391 455.33305000000007 C 169.39641 456.3096100000001 170.90031 459.37995000000006 169.92371 462.2041500000001 L 159.13071 493.5521500000001 C 158.38071 495.7318500000001 156.32990999999998 497.1966500000001 154.02911 497.1966500000001 L 154.029 497.1843500000001 z" stroke-linecap="round" />
</g>
		<g transform="matrix(1 0 0 1 112.99 226.11)"  >
<path style="stroke: none; stroke-width: 1; stroke-dasharray: none; stroke-linecap: butt; stroke-dashoffset: 0; stroke-linejoin: miter; stroke-miterlimit: 4; fill: rgb(0,0,0); fill-rule: evenodd; opacity: 1;" vector-effect="non-scaling-stroke"  transform=" translate(-362.99, -476.11)" d="M 390.819 497.18435 L 345.96000000000004 497.18435 C 343.6553 497.18435 341.6084 495.72345 340.85450000000003 493.54375 L 330.0615 462.19575 C 329.09666000000004 459.37545 330.58884 456.30514999999997 333.41310000000004 455.32464999999996 C 336.22560000000004 454.35589999999996 339.30370000000005 455.85198999999994 340.27250000000004 458.67625 L 349.81940000000003 486.39124999999996 L 385.4284 486.39124999999996 L 385.4284 460.43024999999994 C 385.4284 457.44974999999994 387.84250000000003 455.03574999999995 390.8229 455.03574999999995 C 393.8033 455.03574999999995 396.2213 457.45374999999996 396.2213 460.43414999999993 L 396.2213 491.78914999999995 C 396.2213 494.76964999999996 393.8033 497.18754999999993 390.8268 497.18754999999993 L 390.819 497.18434999999994 z" stroke-linecap="round" />
</g>
		<g transform="matrix(1 0 0 1 0 -136.87)"  >
<path style="stroke: none; stroke-width: 1; stroke-dasharray: none; stroke-linecap: butt; stroke-dashoffset: 0; stroke-linejoin: miter; stroke-miterlimit: 4; fill: rgb(0,0,0); fill-rule: evenodd; opacity: 1;" vector-effect="non-scaling-stroke"  transform=" translate(-250, -113.13)" d="M 441.029 118.52435 L 58.978999999999985 118.52435 C 55.998499999999986 118.52435 53.58059999999998 116.10634999999999 53.58059999999998 113.12985 C 53.58059999999998 110.14935 55.99859999999998 107.73145000000001 58.97509999999998 107.73145000000001 L 441.0251 107.73145000000001 C 444.0056 107.73145000000001 446.4235 110.14945000000002 446.4235 113.12985 C 446.4235 116.11025 444.0055 118.52825 441.0251 118.52435 L 441.029 118.52435 z" stroke-linecap="round" />
</g>
		<g transform="matrix(1 0 0 1 0 36.78)"  >
<path style="stroke: none; stroke-width: 1; stroke-dasharray: none; stroke-linecap: butt; stroke-dashoffset: 0; stroke-linejoin: miter; stroke-miterlimit: 4; fill: rgb(0,0,0); fill-rule: evenodd; opacity: 1;" vector-effect="non-scaling-stroke"  transform=" translate(-250, -286.78)" d="M 249.999 148.80435 C 173.917 148.80435 112.019 210.69935 112.019 286.78435 C 112.019 362.85835000000003 173.91400000000002 424.76435000000004 249.999 424.76435000000004 C 326.073 424.76435000000004 387.979 362.85835000000003 387.979 286.78435 C 387.98291 210.69835 326.073 148.80435000000003 249.999 148.80435000000003 z M 249.999 435.55435 C 167.968 435.55435 101.22899999999998 368.81235 101.22899999999998 286.78435 C 101.22899999999998 204.75635000000005 167.971 138.01435 249.999 138.01435 C 332.027 138.01435 398.769 204.75635 398.769 286.78435 C 398.769 368.81235000000004 332.027 435.55435 249.999 435.55435 z" stroke-linecap="round" />
</g>
		<g transform="matrix(1 0 0 1 -5.23 36.77)"  >
<path style="stroke: none; stroke-width: 1; stroke-dasharray: none; stroke-linecap: butt; stroke-dashoffset: 0; stroke-linejoin: miter; stroke-miterlimit: 4; fill: rgb(0,0,0); fill-rule: evenodd; opacity: 1;" vector-effect="non-scaling-stroke"  transform=" translate(-244.77, -286.77)" d="M 249.999 398.21435 C 188.542 398.21435 138.54899999999998 348.22635 138.54899999999998 286.78435 C 138.54899999999998 225.32735000000002 188.53699999999998 175.33435000000003 249.99899999999997 175.33435000000003 C 271.37399999999997 175.33435000000003 292.15099999999995 181.40465000000003 310.073 192.89635000000004 C 327.51099999999997 204.08435000000003 341.47499999999997 219.84535000000005 350.448 238.47835000000003 C 351.741 241.16585000000003 350.61597 244.38065000000003 347.9285 245.67365000000004 C 345.241 246.96665000000004 342.02619999999996 245.84162000000003 340.7332 243.15415000000004 C 324.0382 208.51315000000005 288.4282 186.12715000000003 249.99920000000003 186.12715000000003 C 194.50320000000002 186.12715000000003 149.34920000000002 231.27915000000002 149.34920000000002 286.77715 C 149.34920000000002 342.27315 194.50120000000004 387.41715 249.99920000000003 387.41715 C 288.42920000000004 387.41715 324.0382 365.03015 340.7332 330.39015 C 342.0262 327.70265 345.2527 326.57765 347.9285 327.87065 C 350.616 329.16365 351.741 332.39015 350.448 335.07765 C 341.4753 353.70665 327.51 369.46065 310.073 380.64765 C 292.15099999999995 392.13965 271.37399999999997 398.20965 249.99899999999997 398.20965 L 249.99899999999997 398.21435 z" stroke-linecap="round" />
</g>
		<g transform="matrix(1 0 0 1 97.83 36.77)"  >
<path style="stroke: none; stroke-width: 1; stroke-dasharray: none; stroke-linecap: butt; stroke-dashoffset: 0; stroke-linejoin: miter; stroke-miterlimit: 4; fill: rgb(0,0,0); fill-rule: evenodd; opacity: 1;" vector-effect="non-scaling-stroke"  transform=" translate(-347.83, -286.77)" d="M 338.139 246.21435 C 337.86947000000004 246.21435 337.63119 246.45263 337.63119 246.72216 L 337.63119 326.83116 C 337.63119 327.10069 337.86557 327.33897 338.1351 327.33897 L 357.5301 327.33897 C 357.78791 327.33897 358.03401 327.10459000000003 358.03401 326.83506 L 358.03401 246.72606000000002 C 358.03401 246.45653000000001 357.78401 246.22215000000003 357.5262 246.22215000000003 L 338.13120000000004 246.22215000000003 L 338.139 246.21435000000002 z M 357.534 338.12835 L 338.139 338.12835 C 331.9124 338.12835 326.838 333.06975 326.838 326.82735 L 326.838 246.71835000000004 C 326.838 240.49175000000005 331.9083 235.41735000000006 338.13500000000005 235.41735000000006 L 357.53000000000003 235.41735000000006 C 363.75660000000005 235.41735000000006 368.82700000000006 240.48765000000006 368.82700000000006 246.71835000000004 L 368.82700000000006 326.82735 C 368.82700000000006 333.06955000000005 363.75280000000004 338.12835 357.52600000000007 338.12835 L 357.53400000000005 338.12835 z" stroke-linecap="round" />
</g>
		<g transform="matrix(1 0 0 1 -11.91 33.7)"  >
<path style="stroke: none; stroke-width: 1; stroke-dasharray: none; stroke-linecap: butt; stroke-dashoffset: 0; stroke-linejoin: miter; stroke-miterlimit: 4; fill: rgb(0,0,0); fill-rule: evenodd; opacity: 1;" vector-effect="non-scaling-stroke"  transform=" translate(-238.09, -283.7)" d="M 277.579 302.07435 C 265.075 302.07435 253.02 298.48845 241.856 291.32435 C 200.786 264.98035 174.071 278.04735 148.243 290.68372999999997 L 146.3211 291.62904 C 143.6336 292.93374 140.407 291.82045 139.1023 289.14464 C 137.7898 286.46884 138.89918 283.24233999999996 141.5867 281.92584 L 143.5008 280.99225 C 169.33679999999998 268.35525 201.5048 252.61325000000002 247.6808 282.24225 C 264.5248 293.03525 283.0758 294.22625 302.81780000000003 285.75005 C 318.04080000000005 279.21885 328.31780000000003 269.14504999999997 328.4198 269.04305 C 330.5448 266.94145 333.951 266.95324999999997 336.0526 269.06649 C 338.1542 271.17978999999997 338.1424 274.58599 336.04087999999996 276.69149 C 335.56821999999994 277.15243 324.42787999999996 288.14849 307.41587999999996 295.53549 C 297.32987999999995 299.90659 287.32187999999996 302.07849 277.57987999999995 302.07849 L 277.57899999999995 302.07435 z" stroke-linecap="round" />
</g>
		<g transform="matrix(1 0 0 1 -54.7 56.29)"  >
<path style="stroke: none; stroke-width: 1; stroke-dasharray: none; stroke-linecap: butt; stroke-dashoffset: 0; stroke-linejoin: miter; stroke-miterlimit: 4; fill: rgb(0,0,0); fill-rule: evenodd; opacity: 1;" vector-effect="non-scaling-stroke"  transform=" translate(-195.3, -306.29)" d="M 195.299 300.40435 C 192.0607 300.40435 189.4162 303.03325 189.4162 306.28325 C 189.4162 309.52155 192.0568 312.16215 195.2951 312.16215 C 198.53339999999997 312.16215 201.17399999999998 309.52155 201.17399999999998 306.28325 C 201.17399999999998 303.03325 198.53339999999997 300.40435 195.2951 300.40435 L 195.29899999999998 300.40435 z M 195.299 322.95935000000003 C 186.1037 322.95935000000003 178.62300000000002 315.47105000000005 178.62300000000002 306.28735 C 178.62300000000002 297.08815 186.0996 289.61135 195.299 289.61135 C 204.4984 289.61135 211.975 297.08795000000003 211.975 306.28735 C 211.975 315.47095 204.4984 322.96335 195.303 322.95935000000003 L 195.299 322.95935000000003 z" stroke-linecap="round" />
</g>
		<g transform="matrix(1 0 0 1 49.71 79.48)"  >
<path style="stroke: none; stroke-width: 1; stroke-dasharray: none; stroke-linecap: butt; stroke-dashoffset: 0; stroke-linejoin: miter; stroke-miterlimit: 4; fill: rgb(0,0,0); fill-rule: evenodd; opacity: 1;" vector-effect="non-scaling-stroke"  transform=" translate(-299.71, -329.48)" d="M 299.709 323.59435 C 296.459 323.59435 293.8301 326.22715 293.8301 329.47715 C 293.8301 332.71545 296.4629 335.35605 299.709 335.35605 C 302.9473 335.35605 305.5879 332.71545 305.5879 329.47715 C 305.5879 326.22715 302.9473 323.59825 299.709 323.59435 z M 299.709 346.14935 C 290.51370000000003 346.14935 283.033 338.67275 283.033 329.47735 C 283.033 320.27815 290.50960000000003 312.80135 299.709 312.80135 C 308.8965 312.80135 316.385 320.27795000000003 316.385 329.47735 C 316.385 338.67265 308.8967 346.15335 299.709 346.14935 z" stroke-linecap="round" />
</g>
		<g transform="matrix(1 0 0 1 -12.27 108.56)"  >
<path style="stroke: none; stroke-width: 1; stroke-dasharray: none; stroke-linecap: butt; stroke-dashoffset: 0; stroke-linejoin: miter; stroke-miterlimit: 4; fill: rgb(0,0,0); fill-rule: evenodd; opacity: 1;" vector-effect="non-scaling-stroke"  transform=" translate(-237.73, -358.56)" d="M 237.729 352.67435 C 234.48680000000002 352.67435 231.8462 355.31885 231.8462 358.55715 C 231.8462 361.80715 234.48680000000002 364.44775 237.7251 364.44775 C 240.9751 364.44775 243.60399999999998 361.80715 243.60399999999998 358.55715 C 243.60399999999998 355.31885 240.9751 352.67825 237.7251 352.67435 L 237.72899999999998 352.67435 z M 237.729 375.24035 C 228.52980000000002 375.24035 221.05300000000003 367.75205 221.05300000000003 358.55634999999995 C 221.05300000000003 349.36884999999995 228.52960000000002 341.88034999999996 237.729 341.88034999999996 C 246.9284 341.88034999999996 254.401 349.36864999999995 254.401 358.55634999999995 C 254.40491 367.7516499999999 246.92440000000002 375.24035 237.729 375.24035 z" stroke-linecap="round" />
</g>
		<g transform="matrix(1 0 0 1 -33.37 81.23)"  >
<path style="stroke: none; stroke-width: 1; stroke-dasharray: none; stroke-linecap: butt; stroke-dashoffset: 0; stroke-linejoin: miter; stroke-miterlimit: 4; fill: rgb(0,0,0); fill-rule: evenodd; opacity: 1;" vector-effect="non-scaling-stroke"  transform=" translate(-216.63, -331.23)" d="M 216.629 336.62435 C 213.64849999999998 336.62435 211.23059999999998 334.20635 211.23059999999998 331.22595 C 211.23059999999998 328.24555000000004 213.6486 325.82755000000003 216.629 325.82755000000003 C 219.6095 325.82755000000003 222.02349999999998 328.24555000000004 222.02349999999998 331.22595 C 222.02740999999997 334.20255000000003 219.60549999999998 336.62435 216.629 336.62435 z" stroke-linecap="round" />
</g>
		<g transform="matrix(1 0 0 1 0 -205.52)"  >
<path style="stroke: none; stroke-width: 1; stroke-dasharray: none; stroke-linecap: butt; stroke-dashoffset: 0; stroke-linejoin: miter; stroke-miterlimit: 4; fill: rgb(0,0,0); fill-rule: evenodd; opacity: 1;" vector-effect="non-scaling-stroke"  transform=" translate(-250, -44.48)" d="M 384.619 86.14435 L 115.37900000000002 86.14435 C 104.21500000000002 86.14435 95.14100000000002 77.05845000000001 95.14100000000002 65.90635 L 95.14100000000002 8.20335 C 95.14100000000002 5.22285 97.54720000000002 2.8088500000000005 100.53550000000001 2.8088500000000005 C 103.51600000000002 2.8088500000000005 105.93390000000001 5.226850000000001 105.93390000000001 8.20725 L 105.93390000000001 65.90625 C 105.93390000000001 71.10935 110.16050000000001 75.35155 115.37530000000001 75.35155 L 384.61530000000005 75.35155 C 389.81840000000005 75.35155 394.05670000000003 71.11325000000001 394.05670000000003 65.90625 L 394.05670000000003 8.203249999999997 C 394.05670000000003 5.222749999999997 396.47470000000004 2.808749999999997 399.45120000000003 2.808749999999997 C 402.43170000000003 2.808749999999997 404.8496 5.226749999999997 404.8496 8.207149999999997 L 404.8496 65.90615 C 404.8496 77.05815 395.76370000000003 86.14415 384.6116 86.14415 L 384.619 86.14435 z" stroke-linecap="round" />
</g>
		<g transform="matrix(1 0 0 1 -102.38 -205.53)"  >
<path style="stroke: none; stroke-width: 1; stroke-dasharray: none; stroke-linecap: butt; stroke-dashoffset: 0; stroke-linejoin: miter; stroke-miterlimit: 4; fill: rgb(0,0,0); fill-rule: evenodd; opacity: 1;" vector-effect="non-scaling-stroke"  transform=" translate(-147.62, -44.47)" d="M 147.619 34.35735 C 142.0448 34.35735 137.498 38.900349999999996 137.498 44.47835 C 137.498 50.05635 142.041 54.59935 147.619 54.59935 C 153.2088 54.59935 157.736 50.05635 157.736 44.47835 C 157.736 38.900349999999996 153.20479999999998 34.35735 147.619 34.35735 z M 147.619 65.38835 C 136.096 65.38835 126.705 56.01335 126.705 44.47435 C 126.705 32.939350000000005 136.0917 23.56035 147.619 23.56035 C 159.154 23.56035 168.53300000000002 32.93925 168.53300000000002 44.47435 C 168.53300000000002 56.00935 159.15410000000003 65.38835 147.61900000000003 65.38835 z" stroke-linecap="round" />
</g>
		<g transform="matrix(1 0 0 1 -51.77 -205.53)"  >
<path style="stroke: none; stroke-width: 1; stroke-dasharray: none; stroke-linecap: butt; stroke-dashoffset: 0; stroke-linejoin: miter; stroke-miterlimit: 4; fill: rgb(0,0,0); fill-rule: evenodd; opacity: 1;" vector-effect="non-scaling-stroke"  transform=" translate(-198.23, -44.47)" d="M 198.229 34.35735 C 192.63920000000002 34.35735 188.108 38.900349999999996 188.108 44.47835 C 188.108 50.05635 192.63920000000002 54.59935 198.229 54.59935 C 203.80710000000002 54.59935 208.346 50.05635 208.346 44.47835 C 208.346 38.900349999999996 203.803 34.35735 198.229 34.35735 z M 198.229 65.38835 C 186.69400000000002 65.38835 177.315 56.01335 177.315 44.47435 C 177.315 32.939350000000005 186.69389999999999 23.56035 198.22899999999998 23.56035 C 209.75199999999998 23.56035 219.14299999999997 32.93925 219.14299999999997 44.47435 C 219.14299999999997 56.00935 209.75629999999998 65.38835 198.23299999999998 65.38835 L 198.22899999999998 65.38835 z" stroke-linecap="round" />
</g>
		<g transform="matrix(1 0 0 1 -1.18 -205.53)"  >
<path style="stroke: none; stroke-width: 1; stroke-dasharray: none; stroke-linecap: butt; stroke-dashoffset: 0; stroke-linejoin: miter; stroke-miterlimit: 4; fill: rgb(0,0,0); fill-rule: evenodd; opacity: 1;" vector-effect="non-scaling-stroke"  transform=" translate(-248.82, -44.47)" d="M 248.819 34.35735 C 243.2292 34.35735 238.69799999999998 38.900349999999996 238.69799999999998 44.47835 C 238.69799999999998 50.05635 243.2292 54.59935 248.819 54.59935 C 254.3971 54.59935 258.936 50.05635 258.936 44.47835 C 258.936 38.900349999999996 254.39299999999997 34.35735 248.819 34.35735 z M 248.819 65.38835 C 237.284 65.38835 227.90499999999997 56.01335 227.90499999999997 44.47435 C 227.90499999999997 32.939350000000005 237.28389999999996 23.56035 248.81899999999996 23.56035 C 260.342 23.56035 269.73299999999995 32.93925 269.73299999999995 44.47435 C 269.73299999999995 56.00935 260.34239999999994 65.38835 248.82299999999995 65.38835 L 248.81899999999996 65.38835 z" stroke-linecap="round" />
</g>
		<g transform="matrix(1 0 0 1 78.76 -217.51)"  >
<path style="stroke: none; stroke-width: 1; stroke-dasharray: none; stroke-linecap: butt; stroke-dashoffset: 0; stroke-linejoin: miter; stroke-miterlimit: 4; fill: rgb(0,0,0); fill-rule: evenodd; opacity: 1;" vector-effect="non-scaling-stroke"  transform=" translate(-328.76, -32.49)" d="M 367.889 37.88935 L 289.635 37.88935 C 286.6545 37.88935 284.2366 35.47135 284.2366 32.49095 C 284.2366 29.51045 286.6546 27.09255 289.635 27.09255 L 367.889 27.09255 C 370.8695 27.09255 373.2874 29.51055 373.2874 32.49095 C 373.2874 35.47145 370.8694 37.88935 367.889 37.88935 z" stroke-linecap="round" />
</g>
		<g transform="matrix(1 0 0 1 78.76 -193.54)"  >
<path style="stroke: none; stroke-width: 1; stroke-dasharray: none; stroke-linecap: butt; stroke-dashoffset: 0; stroke-linejoin: miter; stroke-miterlimit: 4; fill: rgb(0,0,0); fill-rule: evenodd; opacity: 1;" vector-effect="non-scaling-stroke"  transform=" translate(-328.76, -56.46)" d="M 367.889 61.85735 L 289.635 61.85735 C 286.6545 61.85735 284.2366 59.43935 284.2366 56.462849999999996 C 284.2366 53.48235 286.6546 51.064449999999994 289.635 51.064449999999994 L 367.889 51.064449999999994 C 370.8695 51.064449999999994 373.2874 53.48244999999999 373.2874 56.462849999999996 C 373.2874 59.44325 370.8694 61.86125 367.889 61.85735 z" stroke-linecap="round" />
</g>
</g>
</g>
</svg>